<?xml version="1.0" encoding="UTF-8"?>
<svg xmlns="http://www.w3.org/2000/svg" viewBox="0 0 700 900" width="700" height="900">
  <defs>
    <style>
      .title { font: bold 16px sans-serif; fill: #333; }
      .label { font: 14px sans-serif; fill: #333; }
      .label-small { font: 12px sans-serif; fill: #666; }
      .box { stroke-width: 2; rx: 5; }
      .arrow { stroke: #333; stroke-width: 2; fill: none; marker-end: url(#arrowhead); }
      .arrow-k { stroke: #2e86ab; stroke-width: 3; fill: none; marker-end: url(#arrowhead-blue); }
      .faded { opacity: 0.3; }
      .attention-box { fill: #ffccbc; stroke: #ff5722; }
      .attention-box-highlight { fill: #2e86ab; stroke: #1a5276; }
      .ffn-box { fill: #b3e5fc; stroke: #03a9f4; }
      .norm-box { fill: #fff9c4; stroke: #fdd835; }
      .embed-box { fill: #f8bbd9; stroke: #e91e63; }
      .output-box { fill: #c8e6c9; stroke: #4caf50; }
      .linear-box { fill: #d1c4e9; stroke: #7e57c2; }
      .bracket { stroke: #333; stroke-width: 2; fill: none; }
      .plus-circle { fill: white; stroke: #333; stroke-width: 2; }
      .pos-enc { fill: none; stroke: #333; stroke-width: 2; }
      .k-label { font: bold 16px sans-serif; fill: #2e86ab; }
      .k-annotation { font: italic 13px sans-serif; fill: #2e86ab; }
    </style>
    <marker id="arrowhead" markerWidth="10" markerHeight="7" refX="9" refY="3.5" orient="auto">
      <polygon points="0 0, 10 3.5, 0 7" fill="#333"/>
    </marker>
    <marker id="arrowhead-blue" markerWidth="10" markerHeight="7" refX="9" refY="3.5" orient="auto">
      <polygon points="0 0, 10 3.5, 0 7" fill="#2e86ab"/>
    </marker>
  </defs>

  <!-- Background -->
  <rect width="700" height="900" fill="#fafafa"/>

  <!-- Title -->
  <text x="350" y="15" text-anchor="middle" class="title" style="fill: #2e86ab;">Key (K): "What do I have to offer?"</text>

  <!-- ==================== ENCODER (Left Side) - HIGHLIGHTED ==================== -->

  <!-- Encoder bracket -->
  <path d="M 70 280 L 50 280 L 50 580 L 70 580" class="bracket" style="opacity: 0.5;"/>
  <text x="35" y="435" text-anchor="middle" class="label" style="font-size: 18px; opacity: 0.5;">N×</text>

  <!-- Input Embedding - slightly faded -->
  <g style="opacity: 0.6;">
    <rect x="100" y="780" width="120" height="40" class="box embed-box"/>
    <text x="160" y="805" text-anchor="middle" class="label">Input</text>
    <text x="160" y="820" text-anchor="middle" class="label">Embedding</text>
    <text x="160" y="860" text-anchor="middle" class="label" style="font-weight: bold;">Inputs</text>
    <path d="M 160 840 L 160 825" class="arrow"/>

    <ellipse cx="100" cy="710" rx="25" ry="15" class="pos-enc"/>
    <path d="M 80 720 Q 100 700 120 720" class="pos-enc"/>
    <text x="45" y="715" text-anchor="middle" class="label-small">Positional</text>
    <text x="45" y="730" text-anchor="middle" class="label-small">Encoding</text>
    <circle cx="160" cy="710" r="12" class="plus-circle"/>
    <text x="160" y="715" text-anchor="middle" class="label" style="font-size: 16px;">+</text>
    <path d="M 160 780 L 160 725" class="arrow"/>
    <path d="M 125 710 L 145 710" class="arrow" style="marker-end: none;"/>
  </g>

  <!-- Multi-Head Attention (encoder) - HIGHLIGHTED for K -->
  <rect x="100" y="580" width="120" height="50" class="box attention-box-highlight"/>
  <text x="160" y="600" text-anchor="middle" class="label" style="fill: white; font-weight: bold;">Multi-Head</text>
  <text x="160" y="618" text-anchor="middle" class="label" style="fill: white; font-weight: bold;">Attention</text>

  <!-- K arrow - HIGHLIGHTED -->
  <path d="M 160 695 L 160 635" class="arrow-k"/>
  <text x="170" y="670" class="k-label">K</text>

  <!-- Q, V arrows - faded -->
  <path d="M 130 695 L 130 635" class="arrow" style="opacity: 0.3;"/>
  <path d="M 190 695 L 190 635" class="arrow" style="opacity: 0.3;"/>

  <!-- K annotation for encoder -->
  <text x="20" y="600" class="k-annotation">K labels what</text>
  <text x="20" y="615" class="k-annotation">each token offers</text>
  <path d="M 70 607 L 95 607" stroke="#2e86ab" stroke-width="2" marker-end="url(#arrowhead-blue)"/>

  <!-- Rest of encoder - faded -->
  <g style="opacity: 0.4;">
    <rect x="100" y="500" width="120" height="35" class="box norm-box"/>
    <text x="160" y="523" text-anchor="middle" class="label">Add &amp; Norm</text>
    <path d="M 160 580 L 160 540" class="arrow"/>
    <path d="M 230 660 L 230 517 L 225 517" class="arrow"/>

    <rect x="100" y="410" width="120" height="45" class="box ffn-box"/>
    <text x="160" y="428" text-anchor="middle" class="label">Feed</text>
    <text x="160" y="446" text-anchor="middle" class="label">Forward</text>
    <path d="M 160 500 L 160 460" class="arrow"/>

    <rect x="100" y="330" width="120" height="35" class="box norm-box"/>
    <text x="160" y="353" text-anchor="middle" class="label">Add &amp; Norm</text>
    <path d="M 160 410 L 160 370" class="arrow"/>
    <path d="M 230 480 L 230 347 L 225 347" class="arrow"/>
  </g>

  <!-- K flowing to decoder cross-attention - HIGHLIGHTED -->
  <path d="M 160 330 L 160 280 L 320 280 L 320 420 L 340 420" class="arrow-k" style="stroke-dasharray: 5,5;"/>
  <text x="245" y="270" class="k-label">K from encoder</text>

  <!-- ==================== DECODER (Right Side) ==================== -->

  <!-- Decoder bracket -->
  <path d="M 290 180 L 270 180 L 270 630 L 290 630" class="bracket" style="opacity: 0.5;"/>
  <text x="255" y="405" text-anchor="middle" class="label" style="font-size: 18px; opacity: 0.5;">N×</text>

  <!-- Output Embedding - faded -->
  <g style="opacity: 0.4;">
    <rect x="340" y="780" width="120" height="40" class="box embed-box"/>
    <text x="400" y="805" text-anchor="middle" class="label">Output</text>
    <text x="400" y="820" text-anchor="middle" class="label">Embedding</text>
    <text x="400" y="860" text-anchor="middle" class="label" style="font-weight: bold;">Outputs</text>
    <text x="400" y="878" text-anchor="middle" class="label-small">(shifted right)</text>
    <path d="M 400 840 L 400 825" class="arrow"/>

    <ellipse cx="480" cy="710" rx="25" ry="15" class="pos-enc"/>
    <path d="M 460 720 Q 480 700 500 720" class="pos-enc"/>
    <text x="545" y="715" text-anchor="middle" class="label-small">Positional</text>
    <text x="545" y="730" text-anchor="middle" class="label-small">Encoding</text>
    <circle cx="400" cy="710" r="12" class="plus-circle"/>
    <text x="400" y="715" text-anchor="middle" class="label" style="font-size: 16px;">+</text>
    <path d="M 400 780 L 400 725" class="arrow"/>
    <path d="M 455 710 L 415 710" class="arrow" style="marker-end: none;"/>
  </g>

  <!-- Masked Multi-Head Attention - slightly faded -->
  <g style="opacity: 0.5;">
    <rect x="340" y="580" width="120" height="55" class="box attention-box"/>
    <text x="400" y="598" text-anchor="middle" class="label">Masked</text>
    <text x="400" y="614" text-anchor="middle" class="label">Multi-Head</text>
    <text x="400" y="630" text-anchor="middle" class="label">Attention</text>
    <path d="M 400 695 L 400 640" class="arrow"/>
    <path d="M 370 695 L 370 640" class="arrow"/>
    <path d="M 430 695 L 430 640" class="arrow"/>

    <rect x="340" y="500" width="120" height="35" class="box norm-box"/>
    <text x="400" y="523" text-anchor="middle" class="label">Add &amp; Norm</text>
    <path d="M 400 580 L 400 540" class="arrow"/>
    <path d="M 470 660 L 470 517 L 465 517" class="arrow"/>
  </g>

  <!-- Multi-Head Attention (cross) - HIGHLIGHTED for K -->
  <rect x="340" y="400" width="120" height="50" class="box attention-box-highlight"/>
  <text x="400" y="420" text-anchor="middle" class="label" style="fill: white; font-weight: bold;">Multi-Head</text>
  <text x="400" y="438" text-anchor="middle" class="label" style="fill: white; font-weight: bold;">Attention</text>

  <!-- Q from decoder - faded -->
  <path d="M 400 500 L 400 455" class="arrow" style="opacity: 0.3;"/>

  <!-- K annotation for cross-attention -->
  <text x="520" y="410" class="k-annotation">K from encoder</text>
  <text x="520" y="425" class="k-annotation">(answers available)</text>
  <path d="M 465 417 L 490 417" stroke="#2e86ab" stroke-width="2" marker-end="url(#arrowhead-blue)"/>

  <!-- Rest of decoder - faded -->
  <g style="opacity: 0.4;">
    <rect x="340" y="320" width="120" height="35" class="box norm-box"/>
    <text x="400" y="343" text-anchor="middle" class="label">Add &amp; Norm</text>
    <path d="M 400 400 L 400 360" class="arrow"/>
    <path d="M 470 480 L 470 337 L 465 337" class="arrow"/>

    <rect x="340" y="235" width="120" height="45" class="box ffn-box"/>
    <text x="400" y="253" text-anchor="middle" class="label">Feed</text>
    <text x="400" y="271" text-anchor="middle" class="label">Forward</text>
    <path d="M 400 320 L 400 285" class="arrow"/>

    <rect x="340" y="160" width="120" height="35" class="box norm-box"/>
    <text x="400" y="183" text-anchor="middle" class="label">Add &amp; Norm</text>
    <path d="M 400 235 L 400 200" class="arrow"/>
    <path d="M 470 300 L 470 177 L 465 177" class="arrow"/>

    <rect x="340" y="95" width="120" height="35" class="box linear-box"/>
    <text x="400" y="118" text-anchor="middle" class="label">Linear</text>
    <path d="M 400 160 L 400 135" class="arrow"/>

    <rect x="340" y="35" width="120" height="35" class="box output-box"/>
    <text x="400" y="58" text-anchor="middle" class="label">Softmax</text>
    <path d="M 400 95 L 400 75" class="arrow"/>
    <text x="400" y="25" text-anchor="middle" class="label" style="font-weight: bold;">Output Probabilities</text>
  </g>

  <!-- Legend -->
  <rect x="520" y="800" width="150" height="70" fill="white" stroke="#2e86ab" stroke-width="2" rx="5"/>
  <text x="595" y="820" text-anchor="middle" class="k-label">Key (K)</text>
  <text x="595" y="840" text-anchor="middle" class="label-small">Each token says:</text>
  <text x="595" y="858" text-anchor="middle" class="k-annotation">"Here's what I</text>
  <text x="595" y="873" text-anchor="middle" class="k-annotation">have to offer"</text>

</svg>
